<svg width="26" height="26" viewBox="0 0 26 26" fill="none" xmlns="http://www.w3.org/2000/svg">
<path d="M6.56738 6.26574V3.56398C6.56754 3.1278 6.74092 2.70953 7.04941 2.40115C7.35789 2.09278 7.77622 1.91954 8.21241 1.91954H22.4662C22.9025 1.91954 23.3209 2.09286 23.6294 2.40136C23.9379 2.70986 24.1112 3.12828 24.1112 3.56457V17.819C24.1111 18.255 23.9378 18.6732 23.6294 18.9816C23.3211 19.2899 22.9029 19.4632 22.4668 19.4634H19.7346" stroke="white" stroke-width="2.63158" stroke-linecap="round" stroke-linejoin="round"/>
<path d="M17.7883 6.5979H3.53278C3.09669 6.59821 2.67857 6.77167 2.37032 7.08014C2.06207 7.3886 1.88892 7.80685 1.88892 8.24293V22.4967C1.88892 22.933 2.06223 23.3514 2.37073 23.6599C2.67924 23.9684 3.09766 24.1418 3.53395 24.1418H17.7883C18.2244 24.1416 18.6426 23.9683 18.951 23.6599C19.2593 23.3516 19.4326 22.9334 19.4328 22.4973V8.24176C19.4325 7.80578 19.2591 7.38775 18.9508 7.07952C18.6424 6.77128 18.2243 6.59806 17.7883 6.5979Z" stroke="white" stroke-width="2.63158" stroke-linejoin="round"/>
</svg>
