<svg width="13" height="10" viewBox="0 0 13 10" fill="none" xmlns="http://www.w3.org/2000/svg">
<path d="M1.12243 0.776293L3.69374 2.95132L5.98462 0.239684C6.04877 0.163877 6.12988 0.102959 6.22191 0.0614663C6.31395 0.0199741 6.41453 -0.00102313 6.51618 3.833e-05C6.61783 0.00109979 6.71792 0.0241926 6.80899 0.067597C6.90007 0.111001 6.97978 0.173599 7.0422 0.250728L9.22833 2.95067L11.8828 0.744461C11.987 0.657999 12.1162 0.604208 12.2531 0.590288C12.3901 0.576367 12.5281 0.60298 12.6489 0.666567C12.7696 0.730153 12.8673 0.827678 12.9288 0.946089C12.9903 1.0645 13.0127 1.19815 12.9931 1.32914L11.9794 8.05105H1.0366L0.00739908 1.35968C-0.013045 1.22795 0.00911873 1.09337 0.0708883 0.974156C0.132658 0.854944 0.231048 0.756862 0.352733 0.693196C0.474418 0.62953 0.613518 0.603357 0.751192 0.61822C0.888866 0.633084 1.01846 0.688266 1.12243 0.776293ZM1.08931 8.7007H11.9017V9.35035C11.9017 9.52265 11.8305 9.68789 11.7038 9.80972C11.577 9.93155 11.4051 10 11.2259 10H1.76509C1.58586 10 1.41397 9.93155 1.28724 9.80972C1.16051 9.68789 1.08931 9.52265 1.08931 9.35035V8.7007Z" fill="#C56A00"/>
</svg>
