<svg width="100" height="100" viewBox="0 0 100 100" fill="none" xmlns="http://www.w3.org/2000/svg">
<rect width="100" height="100" rx="15" fill="white"/>
<path d="M95.977 32.0401L59.5303 44.1923C59.3811 44.2419 59.2505 44.3358 59.1559 44.4614C59.0613 44.587 59.0071 44.7385 59.0007 44.8956C58.9942 45.0528 59.0357 45.2081 59.1196 45.3411C59.2035 45.4741 59.3259 45.5785 59.4706 45.6402L72.8644 51.3809C72.9345 51.4113 73.0114 51.423 73.0874 51.4148C73.1635 51.4067 73.2361 51.379 73.2983 51.3344L86.4286 41.9518C86.836 41.664 87.3363 42.1644 87.0485 42.5717L77.6662 55.7025C77.6224 55.7646 77.5953 55.8369 77.5876 55.9126C77.5798 55.9882 77.5916 56.0645 77.6219 56.1342L83.3602 69.5284C83.4218 69.6731 83.5259 69.7957 83.6588 69.8798C83.7916 69.9639 83.9469 70.0056 84.104 69.9994C84.2612 69.9931 84.4127 69.9392 84.5384 69.8448C84.6642 69.7504 84.7582 69.62 84.8081 69.4709L96.9599 33.0208C97.0057 32.8842 97.0124 32.7376 96.9794 32.5973C96.9464 32.4571 96.8749 32.3288 96.7731 32.227C96.6712 32.1251 96.5429 32.0536 96.4027 32.0206C96.2625 31.9876 96.1136 31.9943 95.977 32.0401Z" fill="#FF0000"/>
<path d="M21.1325 33.3762H24.7564V21.2587C24.7564 18.0878 25.7379 15.5586 27.7008 13.6711C29.6638 11.7081 32.2307 10.7267 35.4017 10.7267H41.97V21.2587H35.5149V33.3762H41.0641L39.9316 43.9082H35.5149V90H24.7564V43.9082H20L21.1325 33.3762ZM55.5845 67.3505V79.3547C55.5845 79.7322 55.7733 79.921 56.1508 79.921H60.6807C61.0582 79.921 61.2469 79.7322 61.2469 79.3547V58.9702L52.3003 55.0065C51.6209 54.78 50.6771 54.4025 49.4692 53.874C48.2612 53.27 47.1665 52.4018 46.185 51.2693C45.279 50.1368 44.826 48.5891 44.826 46.6262V20.8057C44.826 17.6348 45.8075 15.1056 47.7704 13.2181C49.7334 11.2551 52.3003 10.2737 55.4713 10.2737H61.3602C64.5311 10.2737 67.098 11.2551 69.061 13.2181C71.024 15.1056 72.0054 17.6348 72.0054 20.8057V37.5663L61.2469 36.6604V21.3719C61.2469 20.9945 61.0582 20.8057 60.6807 20.8057H56.1508C55.7733 20.8057 55.5845 20.9945 55.5845 21.3719V45.0407L64.5311 49.0044C65.2106 49.3064 66.1543 49.7216 67.3623 50.2501C68.5703 50.7786 69.6272 51.6091 70.5332 52.7415C71.5147 53.874 72.0054 55.4217 72.0054 57.3847V79.921C72.0054 83.0919 71.024 85.6588 69.061 87.6218C67.098 89.5093 64.5311 90.453 61.3602 90.453H55.4713C52.3003 90.453 49.7334 89.5093 47.7704 87.6218C45.8075 85.6588 44.826 83.0919 44.826 79.921V67.3505H55.5845Z" fill="black"/>
<path d="M21.1325 33.3762V32.4962H20.342L20.2575 33.2821L21.1325 33.3762ZM24.7564 33.3762V34.2562H25.6364V33.3762H24.7564ZM27.7008 13.6711L28.3108 14.3054L28.317 14.2995L28.3231 14.2934L27.7008 13.6711ZM41.97 10.7267H42.85V9.84666H41.97V10.7267ZM41.97 21.2587V22.1387H42.85V21.2587H41.97ZM35.5149 21.2587V20.3787H34.6349V21.2587H35.5149ZM35.5149 33.3762H34.6349V34.2562H35.5149V33.3762ZM41.0641 33.3762L41.939 33.4703L42.0438 32.4962H41.0641V33.3762ZM39.9316 43.9082V44.7882H40.722L40.8065 44.0023L39.9316 43.9082ZM35.5149 43.9082V43.0282H34.6349V43.9082H35.5149ZM35.5149 90V90.88H36.3949V90H35.5149ZM24.7564 90H23.8764V90.88H24.7564V90ZM24.7564 43.9082H25.6364V43.0282H24.7564V43.9082ZM20 43.9082L19.125 43.8141L19.0203 44.7882H20V43.9082ZM21.1325 34.2562H24.7564V32.4962H21.1325V34.2562ZM25.6364 33.3762V21.2587H23.8764V33.3762H25.6364ZM25.6364 21.2587C25.6364 18.2843 26.549 15.9995 28.3108 14.3054L27.0909 13.0368C24.9268 15.1176 23.8764 17.8912 23.8764 21.2587H25.6364ZM28.3231 14.2934C30.0971 12.5193 32.4281 11.6067 35.4017 11.6067V9.84666C32.0334 9.84666 29.2304 10.897 27.0786 13.0488L28.3231 14.2934ZM35.4017 11.6067H41.97V9.84666H35.4017V11.6067ZM41.09 10.7267V21.2587H42.85V10.7267H41.09ZM41.97 20.3787H35.5149V22.1387H41.97V20.3787ZM34.6349 21.2587V33.3762H36.3949V21.2587H34.6349ZM35.5149 34.2562H41.0641V32.4962H35.5149V34.2562ZM40.1891 33.2821L39.0566 43.8141L40.8065 44.0023L41.939 33.4703L40.1891 33.2821ZM39.9316 43.0282H35.5149V44.7882H39.9316V43.0282ZM34.6349 43.9082V90H36.3949V43.9082H34.6349ZM35.5149 89.12H24.7564V90.88H35.5149V89.12ZM25.6364 90V43.9082H23.8764V90H25.6364ZM24.7564 43.0282H20V44.7882H24.7564V43.0282ZM20.875 44.0023L22.0074 33.4703L20.2575 33.2821L19.125 43.8141L20.875 44.0023ZM55.5845 67.3505H56.4645V66.4705H55.5845V67.3505ZM61.2469 58.9702H62.1269V58.3975L61.6034 58.1656L61.2469 58.9702ZM52.3003 55.0065L52.6568 54.2019L52.6184 54.1849L52.5786 54.1716L52.3003 55.0065ZM49.4692 53.874L49.0756 54.6611L49.0958 54.6712L49.1164 54.6802L49.4692 53.874ZM46.185 51.2693L45.4978 51.819L45.5086 51.8326L45.52 51.8457L46.185 51.2693ZM47.7704 13.2181L48.3804 13.8524L48.3866 13.8465L48.3927 13.8404L47.7704 13.2181ZM69.061 13.2181L68.4387 13.8404L68.4448 13.8465L68.4511 13.8524L69.061 13.2181ZM72.0054 37.5663L71.9316 38.4432L72.8854 38.5236V37.5663H72.0054ZM61.2469 36.6604H60.3669V37.4694L61.1731 37.5373L61.2469 36.6604ZM55.5845 45.0407H54.7045V45.6133L55.2281 45.8453L55.5845 45.0407ZM64.5311 49.0044L64.8885 48.2002L64.8875 48.1998L64.5311 49.0044ZM70.5332 52.7415L69.846 53.2913L69.8569 53.3048L69.8682 53.3179L70.5332 52.7415ZM69.061 87.6218L69.6709 88.2561L69.6771 88.2502L69.6832 88.2441L69.061 87.6218ZM47.7704 87.6218L47.1482 88.2441L47.1543 88.2502L47.1605 88.2561L47.7704 87.6218ZM44.826 67.3505V66.4705H43.946V67.3505H44.826ZM54.7045 67.3505V79.3547H56.4645V67.3505H54.7045ZM54.7045 79.3547C54.7045 79.6791 54.7862 80.084 55.1038 80.4017C55.4214 80.7193 55.8264 80.801 56.1508 80.801V79.041C56.0977 79.041 56.2195 79.0283 56.3483 79.1571C56.4772 79.286 56.4645 79.4078 56.4645 79.3547H54.7045ZM56.1508 80.801H60.6807V79.041H56.1508V80.801ZM60.6807 80.801C61.0051 80.801 61.41 80.7193 61.7276 80.4017C62.0452 80.084 62.1269 79.6791 62.1269 79.3547H60.3669C60.3669 79.4078 60.3542 79.286 60.4831 79.1571C60.612 79.0283 60.7338 79.041 60.6807 79.041V80.801ZM62.1269 79.3547V58.9702H60.3669V79.3547H62.1269ZM61.6034 58.1656L52.6568 54.2019L51.9439 55.8111L60.8904 59.7747L61.6034 58.1656ZM52.5786 54.1716C51.9371 53.9578 51.0221 53.5929 49.8219 53.0678L49.1164 54.6802C50.3322 55.2121 51.3046 55.6022 52.0221 55.8413L52.5786 54.1716ZM49.8627 53.0869C48.769 52.54 47.764 51.7476 46.85 50.693L45.52 51.8457C46.5689 53.0559 47.7534 54 49.0756 54.6611L49.8627 53.0869ZM46.8721 50.7196C46.1288 49.7904 45.706 48.4596 45.706 46.6262H43.946C43.946 48.7186 44.4292 50.4833 45.4978 51.819L46.8721 50.7196ZM45.706 46.6262V20.8057H43.946V46.6262H45.706ZM45.706 20.8057C45.706 17.8314 46.6186 15.5465 48.3804 13.8524L47.1605 12.5838C44.9964 14.6646 43.946 17.4382 43.946 20.8057H45.706ZM48.3927 13.8404C50.1667 12.0663 52.4977 11.1537 55.4713 11.1537V9.39367C52.103 9.39367 49.3 10.444 47.1482 12.5959L48.3927 13.8404ZM55.4713 11.1537H61.3602V9.39367H55.4713V11.1537ZM61.3602 11.1537C64.3338 11.1537 66.6647 12.0663 68.4387 13.8404L69.6832 12.5959C67.5314 10.444 64.7284 9.39367 61.3602 9.39367V11.1537ZM68.4511 13.8524C70.2129 15.5465 71.1254 17.8314 71.1254 20.8057H72.8854C72.8854 17.4382 71.835 14.6646 69.6709 12.5838L68.4511 13.8524ZM71.1254 20.8057V37.5663H72.8854V20.8057H71.1254ZM72.0793 36.6895L61.3208 35.7835L61.1731 37.5373L71.9316 38.4432L72.0793 36.6895ZM62.1269 36.6604V21.3719H60.3669V36.6604H62.1269ZM62.1269 21.3719C62.1269 21.0475 62.0452 20.6426 61.7276 20.325C61.41 20.0074 61.0051 19.9257 60.6807 19.9257V21.6857C60.7338 21.6857 60.612 21.6984 60.4831 21.5695C60.3542 21.4407 60.3669 21.3188 60.3669 21.3719H62.1269ZM60.6807 19.9257H56.1508V21.6857H60.6807V19.9257ZM56.1508 19.9257C55.8264 19.9257 55.4214 20.0074 55.1038 20.325C54.7862 20.6426 54.7045 21.0475 54.7045 21.3719H56.4645C56.4645 21.3188 56.4772 21.4407 56.3483 21.5695C56.2195 21.6984 56.0977 21.6857 56.1508 21.6857V19.9257ZM54.7045 21.3719V45.0407H56.4645V21.3719H54.7045ZM55.2281 45.8453L64.1746 49.8089L64.8875 48.1998L55.941 44.2361L55.2281 45.8453ZM64.1737 49.8085C64.8555 50.1115 65.801 50.5276 67.0096 51.0563L67.715 49.4439C66.5076 48.9156 65.5657 48.5012 64.8885 48.2002L64.1737 49.8085ZM67.0096 51.0563C68.0742 51.5221 69.0201 52.2588 69.846 53.2913L71.2204 52.1918C70.2344 50.9593 69.0663 50.035 67.715 49.4439L67.0096 51.0563ZM69.8682 53.3179C70.6728 54.2462 71.1254 55.5667 71.1254 57.3847H72.8854C72.8854 55.2768 72.3566 53.5018 71.1982 52.1652L69.8682 53.3179ZM71.1254 57.3847V79.921H72.8854V57.3847H71.1254ZM71.1254 79.921C71.1254 82.8946 70.2128 85.2255 68.4387 86.9995L69.6832 88.2441C71.8351 86.0922 72.8854 83.2892 72.8854 79.921H71.1254ZM68.4511 86.9875C66.6789 88.6915 64.3438 89.573 61.3602 89.573V91.333C64.7184 91.333 67.5172 90.327 69.6709 88.2561L68.4511 86.9875ZM61.3602 89.573H55.4713V91.333H61.3602V89.573ZM55.4713 89.573C52.4876 89.573 50.1526 88.6915 48.3804 86.9875L47.1605 88.2561C49.3142 90.327 52.1131 91.333 55.4713 91.333V89.573ZM48.3927 86.9995C46.6186 85.2255 45.706 82.8946 45.706 79.921H43.946C43.946 83.2892 44.9963 86.0922 47.1482 88.2441L48.3927 86.9995ZM45.706 79.921V67.3505H43.946V79.921H45.706ZM44.826 68.2305H55.5845V66.4705H44.826V68.2305Z" fill="white"/>
</svg>
