<svg width="123" height="30" viewBox="0 0 123 30" fill="none" xmlns="http://www.w3.org/2000/svg">
<path d="M32.4 9H33.68V4.72C33.68 3.6 34.0267 2.70667 34.72 2.04C35.4133 1.34667 36.32 0.999998 37.44 0.999998H39.76V4.72H37.48V9H39.44L39.04 12.72H37.48V29H33.68V12.72H32L32.4 9ZM44.3688 3.68L44.7688 7.4H40.9688V3.68H44.3688ZM44.7688 9V29H40.9688V12.72H40.3688L40.7688 9H44.7688ZM50.5547 0.999998L50.5947 25.28H51.5947L51.9947 29H46.7947L46.7547 4.72H45.9547L46.3547 0.999998H50.5547ZM52.9953 25.44V12.56C52.9953 11.44 53.342 10.5467 54.0353 9.88C54.7286 9.18667 55.6353 8.84 56.7553 8.84H59.2353C60.3553 8.84 61.262 9.18667 61.9553 9.88C62.6486 10.5467 62.9953 11.44 62.9953 12.56V17.48H59.1953V12.76C59.1953 12.6267 59.1286 12.56 58.9953 12.56H56.9953C56.862 12.56 56.7953 12.6267 56.7953 12.76V17.48H62.9953V21.2H56.7953V25.24C56.7953 25.3733 56.862 25.44 56.9953 25.44H58.9953C59.1286 25.44 59.1953 25.3867 59.1953 25.28V23.08H62.9953V25.44C62.9953 26.56 62.6486 27.4667 61.9553 28.16C61.262 28.8267 60.3553 29.16 59.2353 29.16H56.7553C55.6353 29.16 54.7286 28.8267 54.0353 28.16C53.342 27.4667 52.9953 26.56 52.9953 25.44ZM68.3969 21V25.24C68.3969 25.3733 68.4635 25.44 68.5969 25.44H70.1969C70.3302 25.44 70.3969 25.3733 70.3969 25.24V18.04L67.2369 16.64C66.9969 16.56 66.6635 16.4267 66.2369 16.24C65.8102 16.0267 65.4235 15.72 65.0769 15.32C64.7569 14.92 64.5969 14.3733 64.5969 13.68V4.56C64.5969 3.44 64.9435 2.54666 65.6369 1.88C66.3302 1.18666 67.2369 0.839998 68.3569 0.839998H70.4369C71.5569 0.839998 72.4635 1.18666 73.1569 1.88C73.8502 2.54666 74.1969 3.44 74.1969 4.56V10.48L70.3969 10.16V4.76C70.3969 4.62667 70.3302 4.56 70.1969 4.56H68.5969C68.4635 4.56 68.3969 4.62667 68.3969 4.76V13.12L71.5569 14.52C71.7969 14.6267 72.1302 14.7733 72.5569 14.96C72.9835 15.1467 73.3569 15.44 73.6769 15.84C74.0235 16.24 74.1969 16.7867 74.1969 17.48V25.44C74.1969 26.56 73.8502 27.4667 73.1569 28.16C72.4635 28.8267 71.5569 29.16 70.4369 29.16H68.3569C67.2369 29.16 66.3302 28.8267 65.6369 28.16C64.9435 27.4667 64.5969 26.56 64.5969 25.44V21H68.3969ZM82.4078 12.76C82.4078 12.6267 82.3411 12.56 82.2078 12.56H79.8078C79.6745 12.56 79.6078 12.6267 79.6078 12.76V25.24C79.6078 25.3733 79.6745 25.44 79.8078 25.44H82.2078C82.3411 25.44 82.4078 25.3867 82.4078 25.28V12.76ZM75.8078 25.44V12.56C75.8078 11.44 76.1545 10.5467 76.8478 9.88C77.5411 9.18667 78.4478 8.84 79.5678 8.84H82.4478C83.5678 8.84 84.4745 9.18667 85.1678 9.88C85.8611 10.5467 86.2078 11.44 86.2078 12.56V25.44C86.2078 26.56 85.8611 27.4667 85.1678 28.16C84.4745 28.8267 83.5678 29.16 82.4478 29.16H79.5678C78.4478 29.16 77.5411 28.8267 76.8478 28.16C76.1545 27.4667 75.8078 26.56 75.8078 25.44ZM87.6047 25.44V12.56C87.6047 11.44 87.9514 10.5467 88.6447 9.88C89.338 9.18667 90.2447 8.84 91.3647 8.84H94.2447C95.3647 8.84 96.2714 9.18667 96.9647 9.88C97.658 10.5467 98.0047 11.44 98.0047 12.56V17.84L94.2047 17.44V12.76C94.2047 12.6267 94.138 12.56 94.0047 12.56H91.6047C91.4714 12.56 91.4047 12.6267 91.4047 12.76V25.24C91.4047 25.3733 91.4714 25.44 91.6047 25.44H94.0047C94.138 25.44 94.2047 25.3867 94.2047 25.28V20.64H98.0047V25.44C98.0047 26.56 97.658 27.4667 96.9647 28.16C96.2714 28.8267 95.3647 29.16 94.2447 29.16H91.3647C90.2447 29.16 89.338 28.8267 88.6447 28.16C87.9514 27.4667 87.6047 26.56 87.6047 25.44ZM103.197 3.68L103.597 7.4H99.7969V3.68H103.197ZM103.597 9V29H99.7969V12.72H99.1969L99.5969 9H103.597ZM109.028 29C107.801 29 106.814 28.6533 106.068 27.96C105.348 27.24 104.988 26.3467 104.988 25.28V12.72C104.988 11.6267 105.348 10.7333 106.068 10.04C106.814 9.34667 107.801 9 109.028 9H109.188C109.908 9 110.548 9.17333 111.108 9.52V9H114.908V25.28H115.468L115.868 29H111.108V27.44L110.108 29H109.028ZM108.988 12.72C108.854 12.72 108.788 12.7867 108.788 12.92V25.08C108.788 25.2133 108.854 25.28 108.988 25.28H111.108V12.72H108.988ZM121.062 0.999998L121.103 25.28H122.103L122.503 29H117.303L117.263 4.72H116.463L116.863 0.999998H121.062Z" fill="black"/>
<path d="M28.0174 1.02953L0.590557 9.9838C0.478259 10.0204 0.379983 10.0895 0.308787 10.1821C0.237591 10.2747 0.196845 10.3863 0.191964 10.502C0.187082 10.6178 0.218296 10.7323 0.281457 10.8303C0.344619 10.9283 0.436738 11.0052 0.545575 11.0507L10.6247 15.2807C10.6775 15.3031 10.7353 15.3117 10.7925 15.3057C10.8498 15.2997 10.9044 15.2793 10.9512 15.2464L20.8321 8.33292C21.1386 8.12084 21.5151 8.48952 21.2985 8.78968L14.2382 18.465C14.2052 18.5108 14.1848 18.5641 14.179 18.6198C14.1731 18.6755 14.182 18.7317 14.2048 18.7831L18.523 28.6525C18.5693 28.7592 18.6477 28.8495 18.7477 28.9114C18.8476 28.9734 18.9645 29.0042 19.0827 28.9995C19.201 28.9949 19.315 28.9552 19.4096 28.8857C19.5043 28.8161 19.575 28.72 19.6126 28.6101L28.7571 1.7522C28.7915 1.65153 28.7965 1.54347 28.7717 1.44013C28.7469 1.3368 28.6931 1.24229 28.6164 1.16723C28.5398 1.09217 28.4433 1.03951 28.3377 1.01519C28.2322 0.990866 28.1202 0.995832 28.0174 1.02953Z" fill="#FF0000"/>
</svg>
