<svg width="34" height="42" viewBox="0 0 34 42" fill="none" xmlns="http://www.w3.org/2000/svg">
<path d="M17 0V13.65C17 14.4331 17.2952 15.188 17.8279 15.7677C18.3607 16.3473 19.0928 16.7101 19.8815 16.7853L20.1875 16.8H34V37.8C34.0003 38.8596 33.5954 39.8802 32.8663 40.6572C32.1373 41.4341 31.138 41.91 30.0687 41.9895L29.75 42H4.25C3.17778 42.0003 2.14505 41.6001 1.35884 40.8797C0.572625 40.1592 0.0910423 39.1716 0.0106255 38.115L2.1307e-07 37.8V4.2C-0.000339106 3.14039 0.404614 2.11981 1.13368 1.34285C1.86275 0.565888 2.86205 0.089971 3.93125 0.0105002L4.25 0H17ZM21.25 0.0903C21.9372 0.234464 22.5775 0.544716 23.1136 0.9933L23.375 1.2306L32.7547 10.5C33.2527 10.9916 33.6192 11.5978 33.8215 12.264L33.9065 12.6H21.25V0.0903Z" fill="black"/>
</svg>
