<svg width="245" height="184" viewBox="0 0 245 184" fill="none" xmlns="http://www.w3.org/2000/svg">
<g clip-path="url(#clip0_1197_473)">
<path d="M69.4635 176.253C69.2494 176.263 69.0376 176.207 68.8565 176.092C68.6755 175.977 68.5341 175.81 68.4515 175.612C68.3688 175.414 68.3489 175.196 68.3945 174.986C68.44 174.777 68.5489 174.586 68.7062 174.441L68.7778 174.156C68.7683 174.133 68.7589 174.11 68.7493 174.087C68.5337 173.578 68.1724 173.143 67.7108 172.838C67.2492 172.534 66.7079 172.372 66.1549 172.374C65.6019 172.376 65.0618 172.542 64.6024 172.85C64.1431 173.158 63.7851 173.595 63.5733 174.107C62.7267 176.147 61.6488 178.191 61.3834 180.348C61.2666 181.302 61.3159 182.269 61.5292 183.205C59.5408 178.865 58.5083 174.147 58.5017 169.372C58.5012 168.174 58.5678 166.977 58.7009 165.786C58.811 164.81 58.9636 163.841 59.1589 162.878C60.2247 157.657 62.5128 152.763 65.8355 148.599C67.4436 147.721 68.7442 146.37 69.5619 144.73C69.8581 144.14 70.0675 143.511 70.1834 142.861C70.002 142.885 69.4994 140.12 69.6362 139.95C69.3834 139.566 68.9309 139.375 68.6548 139.001C67.2816 137.138 65.3897 137.463 64.402 139.995C62.2921 141.06 62.2717 142.828 63.5663 144.527C64.39 145.609 64.5032 147.072 65.2258 148.23C65.1515 148.325 65.0741 148.417 64.9998 148.513C63.6407 150.261 62.4561 152.14 61.4631 154.12C61.7046 151.901 61.4163 149.657 60.6221 147.572C59.8172 145.629 58.3084 143.992 56.9798 142.312C55.3838 140.294 52.1113 141.175 51.8301 143.733C51.8274 143.758 51.8247 143.783 51.8221 143.807C52.0195 143.919 52.2127 144.037 52.4017 144.162C52.6391 144.321 52.8231 144.548 52.9295 144.813C53.036 145.078 53.0599 145.369 52.9981 145.648C52.9363 145.927 52.7918 146.181 52.5834 146.376C52.375 146.572 52.1125 146.7 51.8302 146.743L51.8013 146.748C51.8716 147.459 51.9959 148.165 52.1731 148.858C50.4686 155.454 54.1484 157.857 59.4028 157.965C59.5188 158.024 59.6318 158.084 59.7478 158.14C58.7501 160.97 58.1243 163.917 57.8861 166.908C57.7512 168.673 57.7592 170.445 57.9099 172.209L57.9009 172.146C57.5202 170.185 56.475 168.416 54.9418 167.137C52.6646 165.265 49.4474 164.576 46.9907 163.071C46.7296 162.903 46.426 162.814 46.1157 162.813C45.8055 162.812 45.5015 162.9 45.2395 163.067C44.9776 163.233 44.7688 163.471 44.6376 163.753C44.5064 164.034 44.4583 164.347 44.4991 164.655C44.5024 164.677 44.5057 164.699 44.5091 164.721C44.8754 164.87 45.2319 165.042 45.5768 165.236C45.7741 165.347 45.9673 165.465 46.1563 165.59C46.3938 165.749 46.5778 165.976 46.6842 166.241C46.7906 166.506 46.8145 166.797 46.7527 167.076C46.6909 167.355 46.5464 167.609 46.338 167.805C46.1296 168 45.8671 168.128 45.5849 168.171L45.5559 168.176C45.5351 168.179 45.5173 168.182 45.4965 168.185C46.1222 169.68 47.0005 171.056 48.0928 172.253C49.1585 178.012 53.736 178.558 58.6325 176.881H58.6355C59.1727 179.217 59.9512 181.492 60.9582 183.667H69.2556C69.2853 183.575 69.3121 183.479 69.3389 183.387C68.5708 183.435 67.7998 183.389 67.0429 183.25C67.6585 182.494 68.2742 181.732 68.8898 180.976C68.9035 180.962 68.9164 180.947 68.9284 180.932C69.2407 180.545 69.5559 180.161 69.8682 179.774L69.8684 179.774C69.885 178.588 69.7488 177.404 69.4635 176.253Z" fill="#F2F2F2"/>
<path d="M5.6427 163.694L7.9321 166.115L18.5625 158.234L15.1837 154.66L5.6427 163.694Z" fill="#A0616A"/>
<path d="M9.39438 165.033L6.80256 162.597L6.1661 162L-0.432251 167.279L1.28417 169.095L3.30455 167.798L2.37639 170.25L6.92719 175.063C7.14524 175.294 7.43131 175.449 7.74366 175.506C8.056 175.563 8.37827 175.518 8.66341 175.378C8.94855 175.239 9.18165 175.012 9.32869 174.73C9.47572 174.449 9.52898 174.127 9.48071 173.813L8.49856 167.455L10.2293 165.817L9.39438 165.033Z" fill="#2F2E41"/>
<path d="M55.9575 75.5296L55.2317 83.4595C55.2317 83.4595 53.9647 89.434 54.842 88.9498C55.7192 88.4655 54.1463 90.645 54.5606 92.5351C54.9748 94.4251 51.022 108.519 52.8124 107.059C54.6027 105.599 51.7777 115.686 49.9911 120.662C49.444 122.2 48.8819 123.757 48.3162 125.303C48.2046 125.616 48.0928 125.925 47.9776 126.238C47.2443 128.249 46.5109 130.231 45.8076 132.1C45.7071 132.361 45.6103 132.622 45.5136 132.879C45.5098 132.886 45.5098 132.894 45.5061 132.894C43.191 138.991 41.2071 143.789 40.4144 144.582C40.0013 144.995 33.4469 149.733 26.8404 154.479C19.9063 159.459 12.9163 164.45 12.9163 164.45L6.38794 157.596C6.38794 157.596 6.54423 157.551 6.8383 157.462C7.38171 157.306 8.38671 157.011 9.70431 156.62C15.1979 155 8.21914 152.478 13.2068 150.676C14.6136 150.169 15.5516 149.774 15.7636 149.566C17.0031 148.355 18.6669 145.469 19.4522 146.679C20.2375 147.89 23.7995 138.894 24.8267 138.004C25.3776 137.524 27.1753 135.278 28.7163 133.304C30.0412 131.605 31.1801 130.104 31.1801 130.104C31.1801 130.104 31.2025 129.3 31.2359 128.018C31.2844 126.122 31.3551 123.176 31.4296 120.226C31.4258 120.222 31.4258 120.222 31.4296 120.222C31.4556 119.112 31.4816 118.002 31.5078 116.948C31.5263 116.133 31.5449 115.347 31.5636 114.62C31.6119 112.445 31.6454 110.799 31.6454 110.389C31.6454 109.045 31.6454 110.091 32.7062 109.279C32.8646 109.155 33.015 109.02 33.1566 108.877C33.3834 108.673 33.5925 108.45 33.7819 108.21C33.8601 108.043 33.3724 108.27 32.7396 108.143C32.397 108.074 32.0801 107.912 31.824 107.674C30.4915 106.475 31.9283 102.787 31.9283 102.787C28.8986 96.7232 29.1183 91.7507 30.5362 87.9179C31.5966 85.1676 33.2795 82.7006 35.453 80.7108C36.2802 79.9219 37.1814 79.2146 38.1442 78.5987L38.2372 78.096L39.2608 72.5499C39.8051 72.2506 40.3711 71.9929 40.9541 71.7789C42.7721 71.1261 44.7229 70.9317 46.6338 71.2128C48.5331 71.4878 50.3718 72.0835 52.0718 72.9745C53.4613 73.6731 54.7653 74.5306 55.9575 75.5296Z" fill="#2F2E41"/>
<path d="M27.371 176.049L30.6876 176.358L33.4825 163.417L28.5869 162.961L27.371 176.049Z" fill="#A0616A"/>
<path d="M36.9231 181.121L31.9951 176.991L32.2185 174.614L31.0723 174.577L27.5215 174.462H27.5177L26.6468 174.432L25.1691 182.753L27.6591 182.984L28.3179 180.675L29.2373 183.133L30.5549 183.256L35.8289 183.747C35.8736 183.751 35.9219 183.755 35.9667 183.755C36.1763 183.755 36.3836 183.711 36.5749 183.625C36.7661 183.539 36.9369 183.413 37.0758 183.256C37.2917 183.019 37.4238 182.718 37.4516 182.399C37.4734 182.159 37.4367 181.918 37.3447 181.695C37.2526 181.472 37.108 181.276 36.9231 181.121Z" fill="#2F2E41"/>
<path d="M45.8075 132.101C44.5457 138.973 39.2046 155.086 35.9741 164.517C34.5038 168.826 33.4766 171.743 33.4766 171.743L31.8017 171.214H31.7979L28.9655 170.32L27.9345 169.992H27.9307L26.6801 169.594C26.6801 169.594 26.8254 161.898 26.8403 154.479C26.8513 151.368 26.8364 148.303 26.777 145.875C26.71 143.226 26.5945 141.33 26.4048 140.954C25.6193 139.412 26.9333 139.248 28.3216 138.861C29.7135 138.47 28.6267 137.881 28.087 136.63C27.7224 135.795 28.4406 134.682 28.9506 134.049C29.0913 133.87 29.2417 133.7 29.401 133.538C29.401 133.538 29.1553 133.453 28.7162 133.304C30.0411 131.605 31.18 130.104 31.18 130.104C31.18 130.104 31.2024 129.3 31.2358 128.018C31.2843 126.122 31.355 123.176 31.4295 120.226C31.4257 120.222 31.4257 120.222 31.4295 120.222C31.4555 119.112 31.4815 118.002 31.5077 116.948C33.6366 118.584 35.706 120.185 37.5819 121.668C37.5842 121.669 37.5861 121.672 37.5874 121.674C37.5887 121.677 37.5893 121.68 37.5894 121.683C42.0966 125.247 45.4801 128.108 45.9564 129.017C46.1723 129.426 46.0978 130.521 45.8075 132.101Z" fill="#2F2E41"/>
<path d="M156.771 10.7617C157.391 10.7036 158.01 10.8901 158.495 11.2815C158.98 11.6729 159.294 12.2383 159.369 12.8574C159.382 12.9835 159.385 13.1105 159.377 13.237L167.052 16.5171L166.76 21.0002L156.731 15.3693C156.209 15.2968 155.725 15.0535 155.356 14.6773C154.987 14.301 154.753 13.8131 154.69 13.2896C154.657 12.9914 154.683 12.6896 154.767 12.4015C154.85 12.1133 154.99 11.8445 155.177 11.6103C155.365 11.3761 155.596 11.1812 155.859 11.0366C156.122 10.8921 156.41 10.8007 156.708 10.7677C156.729 10.7654 156.75 10.7634 156.771 10.7617Z" fill="#FFB6B6"/>
<path d="M208.991 38.4353C208.801 37.5661 208.449 36.7408 207.953 36.0029C207.815 35.793 207.664 35.5915 207.502 35.3995C206.899 34.6808 206.337 34.0215 205.816 33.4329C205.5 33.0641 205.191 32.7215 204.901 32.405C203.215 30.5537 202.109 29.5742 201.603 29.4922C201.357 29.4512 201.115 29.4214 200.881 29.3916C199.679 29.2426 198.808 29.1346 198.782 27.8644C198.779 27.6824 198.791 27.5006 198.819 27.3206C198.864 27.0185 198.93 26.7198 199.016 26.4267C199.066 26.2606 199.104 26.0914 199.131 25.9202C199.169 25.7005 199.154 25.5365 199.035 25.4359C198.886 25.3131 198.636 25.3317 198.167 25.5179C198.093 25.5477 198.007 25.5812 197.918 25.6221C197.888 25.6334 197.859 25.6483 197.825 25.6632C197.766 25.6892 197.698 25.7191 197.632 25.7525C197.069 26.0208 196.202 26.0543 195.212 25.9537C192.29 25.6558 188.338 24.1808 188.289 24.1621L163.397 14.4816L163.166 14.8541L162.619 15.7405L162.429 16.0459L162.213 16.396L161.271 17.9157L160.795 18.683L168.834 24.7506L169.709 25.4099L170.461 25.9798L185.81 37.5674L191.535 41.3479L192.812 42.1896L198.253 45.7803C199.035 46.2974 199.913 46.6525 200.834 46.8247C201.756 46.9968 202.703 46.9825 203.619 46.7825C204.534 46.5825 205.401 46.201 206.167 45.6604C206.933 45.1198 207.583 44.4311 208.079 43.6349C209.045 42.0856 209.372 40.2212 208.991 38.4353Z" fill="#E6E6E6"/>
<path d="M244.628 184H-23.6278C-23.7265 184 -23.8212 183.961 -23.891 183.891C-23.9608 183.821 -24 183.726 -24 183.628C-24 183.529 -23.9608 183.434 -23.891 183.364C-23.8212 183.294 -23.7265 183.255 -23.6278 183.255H244.628C244.727 183.255 244.821 183.294 244.891 183.364C244.961 183.434 245 183.529 245 183.628C245 183.726 244.961 183.821 244.891 183.891C244.821 183.961 244.727 184 244.628 184Z" fill="#E6E6E6"/>
<path d="M37.3813 62.1249L38.0789 68.5992L37.6687 77.0885L56.4592 74.8548L58.2245 62.1249L55.975 62.1472L37.3813 62.1249Z" fill="#FFB6B6"/>
<path d="M53.3646 41.2136L46.2929 35.6266L42.5807 35.4106L37.0724 38.9419L35.7236 45.8279L32.5337 53.5821L37.2124 74.5082C37.2124 74.5082 37.6512 76.0098 36.5013 76.1902C35.3514 76.3706 35.4893 78.584 35.4893 78.584C35.4893 78.584 35.7234 80.5023 34.6068 80.6713C33.4902 80.8402 30.5128 80.8402 33.1182 84.1924C35.7236 87.5447 56.3307 74.866 56.3307 74.866L59.3237 59.1498C59.3237 59.1498 65.1282 51.348 58.8772 46.8797L53.3646 41.2136Z" fill="#E6E6E6"/>
<path d="M22.4929 88.7256C22.1813 88.3364 21.9588 87.8837 21.8409 87.3992C21.7231 86.9147 21.7129 86.4102 21.8109 85.9213C21.909 85.4324 22.113 84.971 22.4085 84.5695C22.7041 84.168 23.084 83.8363 23.5215 83.5976L32.4167 53.7237L37.9788 56.526L28.2917 85.1599C28.6436 85.922 28.7039 86.7868 28.4612 87.5905C28.2185 88.3941 27.6897 89.0807 26.9749 89.5202C26.2602 89.9598 25.4091 90.1216 24.583 89.9751C23.757 89.8287 23.0133 89.3841 22.4929 88.7256Z" fill="#A0616A"/>
<path d="M38.3498 38.6655C38.3498 38.6655 36.7598 37.8199 35.6723 41.4791C34.8016 44.4087 27.7367 61.8581 27.6466 66.1006C27.0652 66.2239 26.5413 66.5372 26.1575 66.9913C25.7736 67.4454 25.5516 68.0144 25.5265 68.6086L34.2616 69.78C35.788 68.4917 36.1884 66.7516 35.5978 66.2351L37.4944 61.0514L45.4068 44.5586L39.51 39.2563L38.3498 38.6655Z" fill="#E6E6E6"/>
<path d="M85.0241 78.906C85.1369 78.4203 85.1419 77.9157 85.0388 77.4279C84.9357 76.94 84.7269 76.4807 84.4272 76.0824C84.1276 75.684 83.7443 75.3562 83.3043 75.1221C82.8643 74.888 82.3784 74.7533 81.8808 74.7275L61.4754 51.4058L57.1469 56.5745L78.2548 78.2004C78.2668 79.0399 78.5861 79.8458 79.1522 80.4653C79.7183 81.0849 80.4919 81.4752 81.3263 81.5621C82.1607 81.6491 82.998 81.4268 83.6796 80.9372C84.3611 80.4477 84.8395 79.7249 85.0241 78.906Z" fill="#A0616A"/>
<path d="M49.0943 40.6309C49.0943 40.6309 50.1625 39.1803 52.7243 42.0091C54.7753 44.2737 68.6858 56.9499 70.6003 60.7361C71.1779 60.5957 71.7857 60.6515 72.328 60.8948C72.8703 61.1381 73.3163 61.5551 73.5958 62.08L66.2259 66.9164C64.2929 66.4153 63.1799 65.0197 63.4892 64.2984L59.5391 60.4452L45.2778 48.9985L48.3035 41.6657L49.0943 40.6309Z" fill="#E6E6E6"/>
<path d="M125.188 104.664C153.966 104.664 177.296 81.3171 177.296 52.5177C177.296 23.7182 153.966 0.371704 125.188 0.371704C96.4092 0.371704 73.0797 23.7182 73.0797 52.5177C73.0797 81.3171 96.4092 104.664 125.188 104.664Z" fill="#FF0000"/>
<path opacity="0.2" d="M122.723 70.9735C120.336 73.3623 117.098 74.7044 113.722 74.7044C110.346 74.7044 107.109 73.3623 104.722 70.9735C102.67 68.9199 101.381 66.2266 101.069 63.3398C100.756 60.453 101.438 57.5459 103.001 55.1L100.201 57.9591C97.814 60.3479 96.4729 63.5879 96.4729 66.9663C96.4729 70.3446 97.814 73.5846 100.201 75.9735C102.588 78.3623 105.826 79.7044 109.202 79.7044C112.578 79.7044 115.815 78.3623 118.202 75.9735L124.408 69.5251L124.503 69.1242L122.723 70.9735Z" fill="black"/>
<path opacity="0.2" d="M128.634 31.1352C131.425 29.2334 134.856 28.5188 138.172 29.1485C141.489 29.7781 144.42 31.7005 146.32 34.4928C147.953 36.893 148.718 39.7795 148.487 42.674C148.257 45.5686 147.046 48.2976 145.054 50.409L148.338 48.1223C151.128 46.2205 153.049 43.2874 153.678 39.9683C154.307 36.6491 153.593 33.2158 151.693 30.4236C149.792 27.6313 146.861 25.7089 143.545 25.0792C140.228 24.4496 136.797 25.1642 134.007 27.0659L126.709 32.2439L126.542 32.6201L128.634 31.1352Z" fill="black"/>
<path d="M109.202 81.298C106.463 81.298 103.786 80.4854 101.51 78.963C99.2327 77.4405 97.4581 75.2766 96.4101 72.7448C95.3622 70.213 95.088 67.4271 95.6223 64.7394C96.1565 62.0517 97.4752 59.5829 99.4115 57.6451L111.161 45.6488C112.447 44.3605 113.973 43.3383 115.653 42.6406C117.333 41.9429 119.135 41.5834 120.954 41.5827C122.773 41.582 124.574 41.94 126.255 42.6363C127.936 43.3327 129.463 44.3537 130.749 45.641C130.959 45.8505 131.076 46.1347 131.076 46.431C131.076 46.7273 130.959 47.0115 130.749 47.221C130.54 47.4306 130.256 47.5483 129.96 47.5483C129.664 47.5483 129.38 47.4306 129.17 47.221C126.993 45.0418 124.039 43.8175 120.959 43.8175C117.88 43.8175 114.926 45.0418 112.748 47.2211C111.022 53.3096 107.294 57.4871 100.999 59.2175C99.9184 60.2957 99.0612 61.5765 98.4759 62.9864C97.8906 64.3964 97.5887 65.9079 97.5874 67.4347C97.5861 68.9615 97.8855 70.4736 98.4684 71.8845C99.0513 73.2954 99.9064 74.5776 100.985 75.6577C102.063 76.7378 103.343 77.5947 104.753 78.1794C106.162 78.7641 107.673 79.0652 109.198 79.0653C110.724 79.0655 112.235 78.7648 113.644 78.1805C115.054 77.5961 116.334 76.7395 117.413 75.6597C117.158 73.1619 117.888 70.8139 123.604 69.2262C123.706 69.12 123.827 69.035 123.962 68.9759C124.096 68.9168 124.241 68.8849 124.388 68.8819C124.535 68.879 124.681 68.905 124.817 68.9586C124.954 69.0122 125.079 69.0923 125.185 69.1943C125.291 69.2963 125.375 69.4181 125.434 69.5529C125.493 69.6876 125.524 69.8327 125.527 69.9796C125.529 70.1266 125.503 70.2726 125.449 70.4094C125.395 70.5461 125.315 70.6708 125.212 70.7764L119.007 77.2248C117.723 78.5194 116.195 79.5461 114.512 80.2453C112.829 80.9445 111.024 81.3023 109.202 81.298Z" fill="white"/>
<path d="M128.278 64.3272C126.459 64.3322 124.657 63.976 122.976 63.2794C121.296 62.5828 119.77 61.5595 118.487 60.2688C118.278 60.0592 118.16 59.775 118.16 59.4786C118.16 59.1823 118.278 58.898 118.488 58.6885C118.697 58.479 118.981 58.3613 119.277 58.3613C119.573 58.3614 119.857 58.4791 120.067 58.6887C121.145 59.7678 122.425 60.6238 123.834 61.2078C125.243 61.7918 126.753 62.0924 128.278 62.0924C129.803 62.0924 131.313 61.7918 132.721 61.2078C134.13 60.6238 135.41 59.7678 136.489 58.6887C137.977 49.718 144.044 48.452 149.317 45.8512C150.395 44.7721 151.251 43.491 151.834 42.0811C152.418 40.6712 152.718 39.1601 152.718 37.634C152.718 36.108 152.418 34.5969 151.834 33.187C151.251 31.7771 150.395 30.496 149.317 29.4169C148.239 28.3378 146.959 27.4819 145.55 26.8979C144.141 26.3139 142.631 26.0133 141.106 26.0133C139.581 26.0133 138.071 26.3139 136.662 26.8979C135.253 27.4819 133.973 28.3379 132.895 29.417C131.428 33.6524 129.987 37.9378 125.618 36.6987C125.515 36.8025 125.392 36.8848 125.256 36.941C125.121 36.9971 124.975 37.026 124.829 37.026C124.533 37.026 124.249 36.9083 124.039 36.6988C123.83 36.4892 123.712 36.205 123.712 35.9087C123.712 35.6124 123.83 35.3282 124.039 35.1186L131.316 27.8369C132.601 26.5503 134.128 25.5297 135.807 24.8334C137.487 24.1371 139.288 23.7787 141.106 23.7787C142.924 23.7787 144.724 24.1371 146.404 24.8333C148.084 25.5296 149.61 26.5502 150.896 27.8368C152.182 29.1234 153.201 30.6508 153.897 32.3318C154.593 34.0128 154.951 35.8145 154.951 37.634C154.951 39.4535 154.593 41.2552 153.897 42.9363C153.201 44.6173 152.182 46.1447 150.896 47.4313L138.068 60.269C136.785 61.5596 135.259 62.5829 133.579 63.2795C131.898 63.9761 130.097 64.3322 128.278 64.3272Z" fill="white"/>
<path d="M170.461 25.9799C168.273 22.2605 165.639 18.822 162.619 15.7406C161.945 15.0553 161.249 14.3847 160.538 13.7329C160.144 13.3717 159.745 13.0178 159.34 12.6713C158.569 12.0084 157.777 11.3677 156.969 10.7495C147.845 3.7653 136.674 -0.0129606 125.187 3.34043e-05C96.2518 3.34043e-05 72.7065 23.5588 72.7065 52.5185C72.7052 55.7117 72.9954 58.8983 73.5736 62.0387C73.5745 62.0563 73.5771 62.0737 73.5813 62.0909C73.8455 63.5324 74.173 64.9552 74.5526 66.3519C77.242 76.2108 82.7474 85.0701 90.3941 91.8439C98.0407 98.6177 107.496 103.012 117.601 104.487C127.707 105.962 138.022 104.455 147.284 100.149C156.546 95.8441 164.351 88.9279 169.743 80.2488C170.468 79.0792 171.151 77.8799 171.79 76.6507C175.865 68.7806 177.881 60.0051 177.649 51.144C177.416 42.2829 174.944 33.6253 170.461 25.9799ZM125.187 104.292C118.392 104.294 111.663 102.957 105.386 100.356C99.1076 97.7547 93.4034 93.9411 88.5988 89.1331C83.7942 84.325 79.9835 78.6166 77.3843 72.3341C74.7852 66.0516 73.4486 59.3181 73.4509 52.5185C73.4509 23.9684 96.6613 0.744976 125.187 0.744976C132.09 0.748892 138.922 2.13571 145.281 4.8237C151.64 7.51169 157.398 11.4464 162.213 16.396C163.469 17.679 164.654 19.0294 165.764 20.4412C166.862 21.8227 167.887 23.2611 168.835 24.7506C172.783 30.9579 175.363 37.9365 176.403 45.2207C177.443 52.505 176.918 59.9274 174.864 66.9927C174.406 68.5718 173.87 70.1177 173.267 71.6336C172.661 73.1534 171.987 74.6432 171.243 76.0884C166.89 84.5648 160.29 91.6796 152.167 96.654C144.044 101.628 134.71 104.271 125.187 104.292Z" fill="#B70000"/>
<path d="M196.579 176.167L193.158 176.138L191.644 162.625L196.693 162.668L196.579 176.167Z" fill="#FFB6B6"/>
<path d="M197.487 174.588L196.593 174.529L192.949 174.279L191.777 174.201L191.755 176.648L186.291 180.358C186.021 180.541 185.817 180.806 185.708 181.114C185.599 181.422 185.592 181.757 185.687 182.069C185.781 182.381 185.973 182.655 186.235 182.851C186.496 183.046 186.813 183.153 187.139 183.155L193.939 183.211L195.13 180.798L195.566 183.226L198.134 183.248L197.487 174.588Z" fill="#2F2E41"/>
<path d="M232.597 173.666L229.327 174.672L223.808 162.247L228.634 160.762L232.597 173.666Z" fill="#FFB6B6"/>
<path d="M232.987 171.888L232.116 172.1L228.569 172.961L227.426 173.24L228.144 175.583L224.054 180.768C223.876 180.994 223.766 181.265 223.735 181.551C223.704 181.837 223.755 182.126 223.88 182.384C224.005 182.643 224.201 182.861 224.444 183.014C224.688 183.167 224.969 183.248 225.256 183.248C225.408 183.248 225.558 183.225 225.703 183.181L232.205 181.181L232.611 178.518L233.761 180.701L236.214 179.944L232.987 171.888Z" fill="#2F2E41"/>
<path d="M189.698 62.5438L183.169 81.5301L182.954 83.0494C181.309 84.6124 183.375 85.1273 182.601 85.5395C181.826 85.9517 181.305 87.1072 182.349 87.3136C183.393 87.5201 186.759 161.574 191.2 164.45C195.64 167.325 198.343 169.405 197.527 165.195C197.199 163.498 197.664 154.403 198.336 144.147C198.412 142.985 199.615 141.754 198.571 140.624C197.527 139.494 198.7 138.75 198.766 137.813C199.702 124.42 200.784 111.197 200.784 111.197C200.784 111.197 207.704 134.982 209.502 133.141C211.299 131.3 210.587 135.833 211.137 137.188C211.596 138.32 209.637 140.543 212.515 140.577C215.393 140.612 222.151 163.731 222.837 163.705C224.195 163.653 228.014 163.799 230.281 163.332C231.401 163.102 226.43 145.598 222.28 130.483C221.949 129.278 220.148 129.25 221.306 126.922C222.465 124.595 216.7 109.538 217.195 108.841C218.508 106.993 219.008 106.189 217.713 106.068C216.418 105.947 216.036 106.658 215.966 104.865C215.896 103.072 215.672 98.6502 215.672 98.6502C215.672 98.6502 214.735 81.1631 208.167 71.5017L207.607 65.7612L189.698 62.5438Z" fill="#2F2E41"/>
<path d="M206.008 26.2942L197.35 27.5278L196.828 33.8014L192.556 40.4892C192.556 40.4892 183.059 47.1769 189.682 57.7414C187.162 66.842 184.656 75.5698 182.267 81.3886C180.406 92.9352 197.078 94.0419 216.137 89.9554C216.137 89.9554 215.874 85.0183 214.145 82.6447C212.415 80.2712 213.357 79.753 213.357 79.753L212.148 75.3187C212.832 68.909 210.523 68.3337 209.438 65.3723L212.733 34.6455L206.008 26.2942Z" fill="#E6E6E6"/>
<path d="M164.446 80.0015C164.538 79.3846 164.867 78.828 165.362 78.4499C165.858 78.0719 166.482 77.9023 167.1 77.9772C167.226 77.9944 167.35 78.022 167.471 78.0597L172.485 71.3835L176.766 72.7382L168.908 81.1404C168.713 81.6303 168.362 82.0418 167.908 82.3107C167.455 82.5796 166.926 82.6909 166.403 82.6271C166.106 82.5879 165.819 82.4905 165.559 82.3405C165.3 82.1904 165.072 81.9907 164.89 81.7527C164.707 81.5146 164.573 81.2429 164.496 80.9531C164.418 80.6633 164.398 80.361 164.437 80.0636C164.44 80.0428 164.443 80.0221 164.446 80.0015Z" fill="#FFB6B6"/>
<path d="M208.991 38.4353C208.868 38.2825 208.734 38.1336 208.593 37.9883C207.61 36.9744 206.344 36.2811 204.96 35.9993C203.577 35.7176 202.141 35.8604 200.84 36.4091C200.713 36.4611 200.587 36.5207 200.464 36.5804C196.016 38.7667 193.616 40.2231 193.325 40.9047C193.225 41.1357 193.139 41.3629 193.054 41.5826C192.972 41.7986 192.893 42.0034 192.812 42.1897C192.469 42.9868 192.075 43.4822 191.07 43.2587C190.736 43.1771 190.415 43.0533 190.113 42.89C189.975 42.8229 189.849 42.7522 189.73 42.6851C189.298 42.4468 188.985 42.2755 188.773 42.4319C188.569 42.5845 188.561 42.9719 188.747 43.8696C188.809 44.2443 188.799 44.6272 188.717 44.9981C188.471 46.0801 188.086 47.1255 187.571 48.1083C186.8 49.6488 185.932 51.1391 184.973 52.5705L176.118 65.2047L175.519 66.0576L174.864 66.9926L169.638 74.4495L169.947 74.766L171.243 76.0883L171.529 76.3826L171.79 76.6507L172.464 77.3398L173.096 77.9842L187.214 66.4748L188.788 65.1897L191.609 62.888L197.39 58.1763L208.329 48.045C209.019 47.4106 209.575 46.6431 209.961 45.7886C210.348 44.9342 210.559 44.0103 210.58 43.0725C210.58 43.0092 210.584 42.9495 210.584 42.8862C210.588 41.262 210.025 39.6876 208.991 38.4353Z" fill="#E6E6E6"/>
<path d="M200.81 26.0658C206.153 26.0658 210.484 21.7314 210.484 16.3846C210.484 11.0379 206.153 6.70343 200.81 6.70343C195.467 6.70343 191.136 11.0379 191.136 16.3846C191.136 21.7314 195.467 26.0658 200.81 26.0658Z" fill="#FFB6B6"/>
<path d="M213.631 29.809C214.929 31.6686 215.797 33.794 216.173 36.0311C215.127 36.701 213.909 37.0529 212.667 37.044C212.624 36.8813 212.582 36.7185 212.534 36.5557C212.174 35.2951 211.639 34.0916 210.944 32.9804C211.039 34.1786 210.877 35.3833 210.468 36.5135C209.811 36.215 209.108 36.0334 208.389 35.9769C207.803 35.9769 207.226 36.1131 206.702 36.3748C206.094 34.355 205.533 32.498 205.136 31.1656C205.124 34.5058 200.231 37.4179 194.893 36.9958C194.701 36.8752 196.635 31.3826 196.448 31.256C196.02 30.9727 195.604 30.6652 195.189 30.3637C196.936 27.6626 198.834 24.7686 198.508 24.3345C198.532 24.8711 196.617 27.4516 194.532 29.8874C193.375 29.0373 199.948 15.2063 196.701 14.0849C196.647 14.5732 195.93 14.5732 195.056 14.4708C194.826 13.665 194.483 12.8957 194.038 12.1856C194.096 12.9009 194.01 13.6205 193.785 14.3019C192.922 14.3022 192.062 14.3931 191.218 14.5732C191.023 14.2659 190.808 13.9718 190.574 13.693C190.597 14.0328 190.587 14.374 190.544 14.7119C189.682 14.8988 188.971 15.1158 188.869 15.2907C188.194 15.0435 189.345 13.9281 188.923 13.3493C187.851 11.9023 189.441 9.79208 190.447 8.29682C192.514 5.23401 197.05 4.17286 200.262 6.01176C200.406 5.51132 201.147 5.17973 202.099 4.95665C202.503 4.86766 202.915 4.82918 203.328 4.8421C207.425 4.91444 213.113 8.29681 213.335 12.3907C213.354 12.8006 213.384 13.2468 213.414 13.7231C213.703 18.3053 213.347 22.5318 216.474 25.884C217.607 27.0959 217.619 32.8357 217.185 35.79C216.059 34.6022 215.257 29.9839 213.631 29.809Z" fill="#2F2E41"/>
<path d="M107.083 53.8257C107.699 53.8257 108.199 53.3254 108.199 52.7083C108.199 52.0912 107.699 51.5909 107.083 51.5909C106.466 51.5909 105.966 52.0912 105.966 52.7083C105.966 53.3254 106.466 53.8257 107.083 53.8257Z" fill="#6C63FF"/>
<path d="M142.442 53.0808C143.058 53.0808 143.558 52.5805 143.558 51.9634C143.558 51.3462 143.058 50.8459 142.442 50.8459C141.825 50.8459 141.325 51.3462 141.325 51.9634C141.325 52.5805 141.825 53.0808 142.442 53.0808Z" fill="#6C63FF"/>
<path d="M36.1529 20.4102C35.3031 22.5281 32.9058 26.693 32.5811 28.9651L32.7272 28.8213C33.006 29.2979 33.3228 29.7512 33.6746 30.1768C34.305 29.5142 35.0664 28.9903 35.9103 28.6384C35.4495 29.5846 35.1826 30.6135 35.1254 31.6646C36.0301 34.5026 40.2126 33.2388 42.6632 32.9289C45.1103 35.7302 48.3661 36.4611 52.6296 34.8507C53.822 34.9735 55.1568 35.0481 55.9924 34.343C56.8279 33.6379 56.3303 32.3321 56.7799 31.3445C59.982 24.3097 57.0269 21.7715 54.5161 18.5817C53.9635 17.8797 53.9658 16.8321 53.2935 16.1624C52.3607 15.234 50.9307 14.9485 49.6123 14.7197C49.9548 14.7378 50.2961 14.6673 50.6035 14.5151C50.9109 14.3629 51.1739 14.134 51.3673 13.8506C51.537 13.565 51.6245 13.2381 51.6203 12.906C51.6161 12.5738 51.5203 12.2492 51.3434 11.968C50.8719 11.1858 49.8921 10.7309 48.9469 10.6172C48.0156 10.554 47.0802 10.6344 46.1733 10.8558C45.5859 10.9331 45.0171 11.1151 44.4938 11.393C44.2469 11.5249 44.0461 11.729 43.9182 11.9781C43.7903 12.2272 43.7415 12.5095 43.7782 12.7871C43.857 13.0435 43.9926 13.2788 44.1749 13.4754C44.3572 13.6721 44.5815 13.825 44.8311 13.9228C45.2116 14.0838 45.6119 14.1934 46.0214 14.2488C44.1407 14.0046 42.2303 14.3392 40.5443 15.2082C38.4314 16.3361 37.0056 18.2934 36.1529 20.4102Z" fill="#2F2E41"/>
<path d="M47.5939 32.284C51.7652 32.284 55.1468 28.8999 55.1468 24.7255C55.1468 20.5511 51.7652 17.1671 47.5939 17.1671C43.4225 17.1671 40.0409 20.5511 40.0409 24.7255C40.0409 28.8999 43.4225 32.284 47.5939 32.284Z" fill="#A0616A"/>
<path d="M40.326 20.6728C40.7639 21.9973 42.0154 22.4241 43.1721 22.6903C43.5368 22.7754 43.9038 22.8546 44.2742 22.9252C44.4108 22.7542 44.5561 22.5867 44.7079 22.4283C45.3383 21.7657 46.0997 21.2418 46.9436 20.8899C46.5787 21.6374 46.3362 22.4386 46.2253 23.263C46.9246 23.3646 47.6277 23.4476 48.3348 23.512C48.9329 23.6394 49.5572 23.5319 50.0785 23.2119C50.5998 22.8918 50.9782 22.3835 51.1357 21.7921C51.7793 22.8454 52.5404 23.8374 53.5811 24.2558C54.1763 24.4698 54.8243 24.4874 55.4301 24.306C56.036 24.1246 56.5679 23.7538 56.9478 23.2479C57.5479 22.4226 57.964 21.478 58.1679 20.478C58.4633 19.305 58.6273 17.9539 58.0474 17.2097C57.5829 16.6074 56.7815 16.5966 56.042 16.6501C54.41 16.7753 52.7952 17.0683 51.2231 17.5244L51.09 17.8238C51.3602 16.1995 50.7742 14.6368 49.6899 14.081C48.9585 13.7094 48.0786 13.7717 47.2236 13.8471C46.1254 13.8961 45.0404 14.1061 44.0031 14.4703C42.8132 14.9284 41.7937 15.7432 41.0842 16.8033C40.3253 17.9564 39.9482 19.529 40.326 20.6728Z" fill="#2F2E41"/>
<path d="M51.0935 13.6083C51.019 13.5863 51.2121 13.6146 51.1451 13.6164C51.1784 13.6144 51.2115 13.6098 51.244 13.6025C51.2495 13.6014 51.3247 13.5774 51.2748 13.5951C51.3869 13.5615 51.487 13.4961 51.5629 13.4069C51.7403 13.1873 51.8795 12.9394 51.9746 12.6736C52.0946 12.3223 52.2876 12.0004 52.5407 11.7289C52.6126 11.6567 52.7004 11.6025 52.7971 11.5706C52.8939 11.5387 52.9967 11.5301 53.0974 11.5455C53.1981 11.5609 53.2937 11.5998 53.3765 11.6591C53.4594 11.7184 53.527 11.7964 53.5741 11.8868C53.6696 12.2354 53.6369 12.6069 53.4819 12.9334C53.3736 13.2657 53.2125 13.5784 53.0047 13.8593C52.6566 14.3187 52.1824 14.6668 51.64 14.8613C51.0122 15.0894 50.3276 15.109 49.6877 14.9171C49.6032 14.882 49.5307 14.8231 49.479 14.7475C49.4274 14.6719 49.3988 14.5828 49.3968 14.4913C49.3948 14.3997 49.4195 14.3096 49.4678 14.2318C49.5161 14.154 49.586 14.0919 49.6689 14.0532L50.736 13.6161C50.7922 13.5914 50.8527 13.5779 50.914 13.5766C50.9754 13.5753 51.0363 13.586 51.0935 13.6083C51.1507 13.6306 51.203 13.6639 51.2474 13.7063C51.2917 13.7488 51.3272 13.7996 51.3519 13.8558C51.3766 13.912 51.3901 13.9725 51.3914 14.0339C51.3927 14.0953 51.382 14.1564 51.3597 14.2136C51.3375 14.2709 51.3042 14.3232 51.2618 14.3675C51.2193 14.4119 51.1686 14.4474 51.1124 14.4722L50.0453 14.9093L50.0265 14.0454C50.1596 14.0839 50.2966 14.1073 50.4349 14.1153C50.5826 14.1301 50.7315 14.1238 50.8774 14.0966C51.0171 14.0783 51.1543 14.0448 51.2867 13.9967C51.3716 13.9657 51.4548 13.9304 51.536 13.891C51.5655 13.8767 51.5948 13.8618 51.6237 13.8463C51.6217 13.8474 51.7458 13.7751 51.6914 13.8091C51.8294 13.7208 51.9589 13.6199 52.0781 13.5076C52.1203 13.4677 52.1591 13.4245 52.1942 13.3784C52.2549 13.3036 52.3113 13.2254 52.363 13.1441C52.4681 12.9719 52.5514 12.7873 52.6108 12.5944C52.638 12.5134 52.6609 12.431 52.6794 12.3476C52.6846 12.3018 52.6929 12.2564 52.7042 12.2118C52.7438 12.1054 52.6967 12.2739 52.7422 12.32L52.9389 12.4651C52.9759 12.4761 53.0148 12.4786 53.0529 12.4725C53.0909 12.4664 53.1271 12.4518 53.1588 12.4298C53.1821 12.397 53.177 12.4025 53.1435 12.4462C53.1045 12.4976 53.0689 12.5515 53.0367 12.6074C52.9662 12.7391 52.9024 12.8744 52.8457 13.0126C52.7283 13.3065 52.5798 13.587 52.4029 13.8494C52.2295 14.1148 51.9768 14.3186 51.6809 14.4318C51.385 14.5451 51.0609 14.5619 50.7548 14.48C50.6399 14.4342 50.5477 14.3451 50.4979 14.2319C50.4481 14.1186 50.4448 13.9903 50.4887 13.8747C50.5356 13.7607 50.6248 13.6693 50.7375 13.6196C50.8503 13.57 50.9779 13.5659 51.0935 13.6083Z" fill="#2F2E41"/>
</g>
<defs>
<clipPath id="clip0_1197_473">
<rect width="245" height="184" fill="white"/>
</clipPath>
</defs>
</svg>
